<?xml version="1.0" encoding="UTF-8"?>
<svg version="1.1" xmlns="http://www.w3.org/2000/svg" width="500" height="500">
<path d="M0 0 C165 0 330 0 500 0 C500 165 500 330 500 500 C335 500 170 500 0 500 C0 335 0 170 0 0 Z " fill="#000000" transform="translate(0,0)"/>
<path d="M0 0 C3.8063457 0.67170806 7.35206816 1.72746564 11 3 C11 3.66 11 4.32 11 5 C11.92232422 5.29003906 11.92232422 5.29003906 12.86328125 5.5859375 C14.07564453 5.97652344 14.07564453 5.97652344 15.3125 6.375 C16.11300781 6.63023437 16.91351563 6.88546875 17.73828125 7.1484375 C20 8 20 8 23 10 C23 10.66 23 11.32 23 12 C23.68707031 12.26296875 24.37414062 12.5259375 25.08203125 12.796875 C34.48453581 16.67367741 43.3794059 21.63333319 52 27 C55.44965536 29.19304965 55.44965536 29.19304965 59.25 30.5625 C59.8275 30.706875 60.405 30.85125 61 31 C61.495 31.99 61.495 31.99 62 33 C63.175625 33.680625 63.175625 33.680625 64.375 34.375 C67.85376593 36.52852177 69.60513577 38.48037099 70.64453125 42.48046875 C70.92968778 47.07613095 70.86490913 49.88511713 67.97265625 53.61328125 C63.61233205 57.61953401 59.31062669 60.4045247 54 63 C52.98198643 63.98165594 51.9753197 64.97591432 51 66 C50.34 66 49.68 66 49 66 C48.505 67.485 48.505 67.485 48 69 C46.35657617 69.72206671 44.68433699 70.37933011 43 71 C41.16347652 72.08533993 39.3514047 73.21284631 37.5625 74.375 C36.12197266 75.30505859 36.12197266 75.30505859 34.65234375 76.25390625 C32.62762492 77.5868213 30.62152572 78.93826801 28.625 80.3125 C26 82 26 82 23.625 82.9375 C20.45722568 84.21969437 17.80085491 85.98636019 14.96484375 87.87890625 C13 89 13 89 10.87890625 89.46484375 C8.6026736 89.8936906 8.6026736 89.8936906 7 93 C4.6171875 93.51171875 4.6171875 93.51171875 1.875 93.6875 C0.96492188 93.75324219 0.05484375 93.81898438 -0.8828125 93.88671875 C-1.93082031 93.94279297 -1.93082031 93.94279297 -3 94 C-3.8671875 91.90234375 -3.8671875 91.90234375 -4 89 C-2.10737206 86.56879466 -0.3518459 84.6435117 1.875 82.5625 C2.47054688 81.98773926 3.06609375 81.41297852 3.6796875 80.82080078 C8.11141007 76.62666248 12.70022642 73.04322936 18 70 C18.69996094 69.5771875 19.39992188 69.154375 20.12109375 68.71875 C22.64443867 67.21227542 25.18083702 65.73276837 27.72265625 64.2578125 C29.50275773 63.21380346 31.28270123 62.16952502 33.0625 61.125 C33.96033203 60.60808594 34.85816406 60.09117187 35.78320312 59.55859375 C40.42042992 56.82107845 43.88761203 54.51094152 47 50 C47.66 49.67 48.32 49.34 49 49 C49.41809201 46.16848027 49.41809201 46.16848027 49 43 C46.58119071 40.73122465 46.58119071 40.73122465 44 39 C44 38.34 44 37.68 44 37 C42.93265625 36.85691406 42.93265625 36.85691406 41.84375 36.7109375 C38.53036664 35.88259166 36.33785246 34.51424448 33.5 32.625 C30.74484928 30.80629095 28.03351254 29.01887382 25.15625 27.3984375 C24.4446875 26.93695313 23.733125 26.47546875 23 26 C23 25.34 23 24.68 23 24 C21.906875 23.731875 20.81375 23.46375 19.6875 23.1875 C16.16076366 22.05177135 15.29591408 21.60899328 13 19 C12.23558594 18.56042969 11.47117187 18.12085938 10.68359375 17.66796875 C6.08263173 14.80827329 0.79042246 10.31253384 -0.51171875 4.85546875 C-0.5 2.9375 -0.5 2.9375 0 0 Z " fill="#F9F9F9" transform="translate(265,202)"/>
<path d="M0 0 C1.19206055 -0.00193359 1.19206055 -0.00193359 2.40820312 -0.00390625 C3.22869141 -0.00003906 4.04917969 0.00382812 4.89453125 0.0078125 C5.72662109 0.00394531 6.55871094 0.00007813 7.41601562 -0.00390625 C13.58036033 0.00614158 13.58036033 0.00614158 14.70703125 1.1328125 C14.89453125 4.0703125 14.89453125 4.0703125 14.70703125 7.1328125 C11.70085856 10.13898519 8.88321527 9.72866566 4.70703125 10.1328125 C4.70703125 10.7928125 4.70703125 11.4528125 4.70703125 12.1328125 C3.95679688 12.25398438 3.2065625 12.37515625 2.43359375 12.5 C-3.2262271 13.42667092 -8.85890719 14.41612329 -14.4765625 15.5703125 C-18.70735113 16.41529664 -22.95333908 17.17965527 -27.19824219 17.95019531 C-31.45281745 18.73807962 -35.60640406 19.71776379 -39.79296875 20.8203125 C-47.57363706 22.65849539 -57.73250383 24.13108073 -65.19921875 20.859375 C-67.29296875 19.1328125 -67.29296875 19.1328125 -68.1015625 17.2421875 C-68.31050963 14.93950487 -68.38947422 12.69518445 -68.35546875 10.3828125 C-68.34644531 9.58359375 -68.33742187 8.784375 -68.328125 7.9609375 C-68.31652344 7.35765625 -68.30492187 6.754375 -68.29296875 6.1328125 C-64.61851606 3.81689706 -60.95018122 3.71663627 -56.73046875 3.53515625 C-55.99030518 3.49628296 -55.2501416 3.45740967 -54.48754883 3.4173584 C-52.08969313 3.29339189 -49.69143191 3.18184462 -47.29296875 3.0703125 C-45.65230063 2.98725693 -44.01167527 2.90335253 -42.37109375 2.81860352 C-35.45021884 2.4646834 -28.52786441 2.14289265 -21.60546875 1.8203125 C-20.68378906 1.77656494 -19.76210937 1.73281738 -18.8125 1.68774414 C-17.18510914 1.61189385 -15.55750403 1.54045324 -13.9296875 1.47436523 C-10.09989676 1.31912649 -10.09989676 1.31912649 -6.3425293 0.62573242 C-4.15836257 0.10043967 -2.24386508 0.00348233 0 0 Z " fill="#F9F9F9" transform="translate(229.29296875,258.8671875)"/>
<path d="M0 0 C1.16982422 -0.0309375 1.16982422 -0.0309375 2.36328125 -0.0625 C5.70916759 -0.08537786 8.16670872 0.00524692 11.1484375 1.59765625 C12.625 3.25 12.625 3.25 12.875 5.9375 C12.7925 6.700625 12.71 7.46375 12.625 8.25 C10.645 8.58 8.665 8.91 6.625 9.25 C6.625 9.91 6.625 10.57 6.625 11.25 C-5.03835152 14.14530381 -16.81249986 15.56118638 -28.73266602 16.93554688 C-30.9692442 17.2017127 -33.19569953 17.50596963 -35.42578125 17.8203125 C-40.35877667 18.35703802 -45.22893277 18.47224035 -50.1875 18.5 C-51.12787109 18.520625 -52.06824219 18.54125 -53.03710938 18.5625 C-53.93880859 18.56765625 -54.84050781 18.5728125 -55.76953125 18.578125 C-56.58268799 18.5874707 -57.39584473 18.59681641 -58.23364258 18.60644531 C-60.88430053 18.16522303 -61.74174005 17.34091766 -63.375 15.25 C-63.95703125 13.34765625 -63.95703125 13.34765625 -64.1875 11.3125 C-64.27644531 10.64347656 -64.36539063 9.97445312 -64.45703125 9.28515625 C-64.35852791 6.84133523 -63.51108816 5.38863368 -62.375 3.25 C-61.12477051 3.19465088 -59.87454102 3.13930176 -58.58642578 3.08227539 C-53.90840163 2.87443965 -49.23054764 2.66296438 -44.55273438 2.45043945 C-42.53552579 2.35929079 -40.51827348 2.26910392 -38.50097656 2.17993164 C-35.58646566 2.05092634 -32.67213417 1.91836036 -29.7578125 1.78515625 C-28.86885284 1.74656998 -27.97989319 1.7079837 -27.06399536 1.66822815 C-21.90751665 1.42863413 -16.795091 1.03377609 -11.66363525 0.46977234 C-7.7780217 0.09664587 -3.90107949 0.02658317 0 0 Z " fill="#F4F4F4" transform="translate(227.375,213.75)"/>
<path d="M0 0 C1.19206055 -0.00193359 1.19206055 -0.00193359 2.40820312 -0.00390625 C3.22869141 -0.00003906 4.04917969 0.00382812 4.89453125 0.0078125 C5.72662109 0.00394531 6.55871094 0.00007813 7.41601562 -0.00390625 C13.58036033 0.00614158 13.58036033 0.00614158 14.70703125 1.1328125 C14.89453125 4.0703125 14.89453125 4.0703125 14.70703125 7.1328125 C11.70085856 10.13898519 8.88321527 9.72866566 4.70703125 10.1328125 C4.70703125 10.7928125 4.70703125 11.4528125 4.70703125 12.1328125 C3.86398438 12.26558594 3.0209375 12.39835937 2.15234375 12.53515625 C1.05664062 12.71175781 -0.0390625 12.88835937 -1.16796875 13.0703125 C-2.80378906 13.33134766 -2.80378906 13.33134766 -4.47265625 13.59765625 C-7.23118421 13.98832409 -7.23118421 13.98832409 -9.29296875 15.1328125 C-11.29256887 15.1728045 -13.29344117 15.17628049 -15.29296875 15.1328125 C-14.63296875 14.1428125 -13.97296875 13.1528125 -13.29296875 12.1328125 C-10.47265625 11.62109375 -10.47265625 11.62109375 -7.16796875 11.4453125 C-5.52441406 11.34669922 -5.52441406 11.34669922 -3.84765625 11.24609375 C-3.00460938 11.20871094 -2.1615625 11.17132813 -1.29296875 11.1328125 C-1.29296875 10.4728125 -1.29296875 9.8128125 -1.29296875 9.1328125 C-0.66648437 9.01164062 -0.04 8.89046875 0.60546875 8.765625 C1.83136719 8.51425781 1.83136719 8.51425781 3.08203125 8.2578125 C3.89414063 8.09539062 4.70625 7.93296875 5.54296875 7.765625 C7.89377048 7.26622318 7.89377048 7.26622318 9.70703125 5.1328125 C8.71437384 3.91640317 8.71437384 3.91640317 6.77415466 4.0370636 C5.50040733 4.05799324 5.50040733 4.05799324 4.20092773 4.0793457 C3.23738876 4.0929866 2.27384979 4.1066275 1.28111267 4.12068176 C-0.30436623 4.1518232 -0.30436623 4.1518232 -1.921875 4.18359375 C-3.56566383 4.21189522 -3.56566383 4.21189522 -5.24266052 4.24076843 C-7.58410402 4.28281492 -9.92550019 4.32756744 -12.2668457 4.37475586 C-15.76048817 4.44344507 -19.25415096 4.49872943 -22.74804688 4.55273438 C-37.66435437 4.81880582 -52.44505119 5.68235645 -67.29296875 7.1328125 C-66.96296875 8.1846875 -66.63296875 9.2365625 -66.29296875 10.3203125 C-65.29296875 14.1328125 -65.29296875 14.1328125 -65.29296875 19.1328125 C-55.39296875 19.1328125 -45.49296875 19.1328125 -35.29296875 19.1328125 C-35.29296875 19.4628125 -35.29296875 19.7928125 -35.29296875 20.1328125 C-41.74420984 21.66361547 -48.0547143 22.36622114 -54.66796875 22.4453125 C-55.68407227 22.47141602 -55.68407227 22.47141602 -56.72070312 22.49804688 C-61.0629883 22.49374332 -63.92260891 21.92882263 -67.29296875 19.1328125 C-68.5143325 16.27706344 -68.40075109 13.46201156 -68.35546875 10.3828125 C-68.34644531 9.58359375 -68.33742187 8.784375 -68.328125 7.9609375 C-68.31652344 7.35765625 -68.30492187 6.754375 -68.29296875 6.1328125 C-64.61851606 3.81689706 -60.95018122 3.71663627 -56.73046875 3.53515625 C-55.99030518 3.49628296 -55.2501416 3.45740967 -54.48754883 3.4173584 C-52.08969313 3.29339189 -49.69143191 3.18184462 -47.29296875 3.0703125 C-45.65230063 2.98725693 -44.01167527 2.90335253 -42.37109375 2.81860352 C-35.45021884 2.4646834 -28.52786441 2.14289265 -21.60546875 1.8203125 C-20.68378906 1.77656494 -19.76210937 1.73281738 -18.8125 1.68774414 C-17.18510914 1.61189385 -15.55750403 1.54045324 -13.9296875 1.47436523 C-10.09989676 1.31912649 -10.09989676 1.31912649 -6.3425293 0.62573242 C-4.15836257 0.10043967 -2.24386508 0.00348233 0 0 Z " fill="#9A9A9A" transform="translate(229.29296875,258.8671875)"/>
<path d="M0 0 C0 0.33 0 0.66 0 1 C-0.83112808 1.05304543 -0.83112808 1.05304543 -1.67904663 1.10716248 C-7.48750482 1.47823219 -13.2957976 1.85181547 -19.10400391 2.22680664 C-21.26672355 2.36611303 -23.42948347 2.50479554 -25.59228516 2.64282227 C-28.71527945 2.84223891 -31.83811816 3.04395805 -34.9609375 3.24609375 C-36.39280899 3.33678383 -36.39280899 3.33678383 -37.85360718 3.42930603 C-43.91794207 3.824633 -49.95718637 4.35439675 -56 5 C-55.67 6.051875 -55.34 7.10375 -55 8.1875 C-54 12 -54 12 -54 17 C-44.1 17 -34.2 17 -24 17 C-24 17.33 -24 17.66 -24 18 C-30.45124109 19.53080297 -36.76174555 20.23340864 -43.375 20.3125 C-44.39110352 20.33860352 -44.39110352 20.33860352 -45.42773438 20.36523438 C-49.77001955 20.36093082 -52.62964016 19.79601013 -56 17 C-57.22136375 14.14425094 -57.10778234 11.32919906 -57.0625 8.25 C-57.05347656 7.45078125 -57.04445312 6.6515625 -57.03515625 5.828125 C-57.02355469 5.22484375 -57.01195312 4.6215625 -57 4 C-53.30456644 1.66610441 -49.57781086 1.56609277 -45.33203125 1.3671875 C-44.57895187 1.32562531 -43.8258725 1.28406311 -43.04997253 1.24124146 C-41.45061044 1.15482844 -39.85101023 1.07273013 -38.2512207 0.99462891 C-35.86539281 0.8775946 -33.48066423 0.74670218 -31.09570312 0.61328125 C-20.72297215 0.0570875 -10.38626729 -0.10450129 0 0 Z " fill="#4F4F4F" transform="translate(218,261)"/>
<path d="M0 0 C1.16982422 -0.0309375 1.16982422 -0.0309375 2.36328125 -0.0625 C5.70916759 -0.08537786 8.16670872 0.00524692 11.1484375 1.59765625 C12.625 3.25 12.625 3.25 12.875 5.9375 C12.7925 6.700625 12.71 7.46375 12.625 8.25 C12.13 6.27 12.13 6.27 11.625 4.25 C-13.39762192 4.13454923 -38.37032564 4.2321633 -63.375 5.25 C-63.045 4.59 -62.715 3.93 -62.375 3.25 C-61.12477051 3.19465088 -59.87454102 3.13930176 -58.58642578 3.08227539 C-53.90840163 2.87443965 -49.23054764 2.66296438 -44.55273438 2.45043945 C-42.53552579 2.35929079 -40.51827348 2.26910392 -38.50097656 2.17993164 C-35.58646566 2.05092634 -32.67213417 1.91836036 -29.7578125 1.78515625 C-28.86885284 1.74656998 -27.97989319 1.7079837 -27.06399536 1.66822815 C-21.90751665 1.42863413 -16.795091 1.03377609 -11.66363525 0.46977234 C-7.7780217 0.09664587 -3.90107949 0.02658317 0 0 Z " fill="#9C9C9C" transform="translate(227.375,213.75)"/>
<path d="M0 0 C0 0.33 0 0.66 0 1 C-10.21446663 1.97653098 -20.40855391 2.32454942 -30.66210938 2.60546875 C-31.89380859 2.64285156 -33.12550781 2.68023437 -34.39453125 2.71875 C-35.49643799 2.74904297 -36.59834473 2.77933594 -37.73364258 2.81054688 C-41.05353601 2.95617502 -41.05353601 2.95617502 -44.52832031 3.51147461 C-47.7955272 3.97122714 -50.85733407 4.11472884 -54.15234375 4.09765625 C-55.25771484 4.09443359 -56.36308594 4.09121094 -57.50195312 4.08789062 C-58.63568359 4.07951172 -59.76941406 4.07113281 -60.9375 4.0625 C-62.67870117 4.05573242 -62.67870117 4.05573242 -64.45507812 4.04882812 C-67.30343934 4.03710647 -70.15169222 4.0206976 -73 4 C-73 3.67 -73 3.34 -73 3 C-59.53876761 1.33752166 -46.11075244 0.70850909 -32.5625 0.375 C-31.75061218 0.35462677 -30.93872437 0.33425354 -30.10223389 0.31326294 C-20.06648061 0.06823238 -10.03906713 -0.05491942 0 0 Z " fill="#D3D3D3" transform="translate(238,262)"/>
<path d="M0 0 C3.8063457 0.67170806 7.35206816 1.72746564 11 3 C11 3.66 11 4.32 11 5 C11.61488281 5.19335938 12.22976563 5.38671875 12.86328125 5.5859375 C14.07564453 5.97652344 14.07564453 5.97652344 15.3125 6.375 C16.11300781 6.63023437 16.91351563 6.88546875 17.73828125 7.1484375 C20 8 20 8 23 10 C23 10.66 23 11.32 23 12 C23.763125 12.28875 24.52625 12.5775 25.3125 12.875 C28 14 28 14 31 16 C26.39146203 15.27991594 22.32762591 13.68704061 18 12 C18 11.34 18 10.68 18 10 C17.236875 9.896875 16.47375 9.79375 15.6875 9.6875 C12.66089895 8.91325322 12.14164574 8.14164574 10 6 C7.70809241 4.86177174 5.38287368 3.94415749 3 3 C3.99 6.3 4.98 9.6 6 13 C0 7 0 7 -0.0625 3.4375 C-0.041875 2.303125 -0.02125 1.16875 0 0 Z " fill="#B3B3B3" transform="translate(265,202)"/>
<path d="M0 0 C2.3431213 0.25561323 4.67843403 0.59270772 7 1 C7.33 1.66 7.66 2.32 8 3 C8.94875 3.144375 9.8975 3.28875 10.875 3.4375 C14.10144555 4.0182602 15.12232727 4.3921212 17 7 C17 7.66 17 8.32 17 9 C17.804375 9.309375 18.60875 9.61875 19.4375 9.9375 C22 11 22 11 23 12 C23.48916702 15.39940122 23.5819604 18.61061953 23 22 C19.88199675 24.91013636 18.27674069 26 14 26 C17.75 21.125 17.75 21.125 20 20 C20.41809201 17.16848027 20.41809201 17.16848027 20 14 C17.58119071 11.73122465 17.58119071 11.73122465 15 10 C15 9.34 15 8.68 15 8 C13.92685547 7.8453125 13.92685547 7.8453125 12.83203125 7.6875 C9.67150484 6.92025497 7.45017514 5.70262646 4.6875 4 C3.80449219 3.46375 2.92148437 2.9275 2.01171875 2.375 C1.34785156 1.92125 0.68398438 1.4675 0 1 C0 0.67 0 0.34 0 0 Z " fill="#B1B1B1" transform="translate(294,231)"/>
<path d="M0 0 C0.33 0 0.66 0 1 0 C2.35148541 4.30785975 3 7.41957592 3 12 C12.9 12 22.8 12 33 12 C33 12.33 33 12.66 33 13 C26.54875891 14.53080297 20.23825445 15.23340864 13.625 15.3125 C12.60889648 15.33860352 12.60889648 15.33860352 11.57226562 15.36523438 C7.20909784 15.36091013 4.47414888 14.65631722 1 12 C-0.71133657 8.44568558 -0.06431184 3.85871021 0 0 Z " fill="#858585" transform="translate(161,266)"/>
<path d="M0 0 C0.86625 0.4640625 0.86625 0.4640625 1.75 0.9375 C3.9338937 2.0672869 3.9338937 2.0672869 6.1875 2.5 C6.785625 2.665 7.38375 2.83 8 3 C8.33 3.66 8.66 4.32 9 5 C9.78375 5.45375 10.5675 5.9075 11.375 6.375 C14.14514664 8.08985268 15.34342694 9.22463992 17 12 C17.29296875 14.796875 17.29296875 14.796875 17.1875 17.75 C17.16042969 18.73484375 17.13335937 19.7196875 17.10546875 20.734375 C17.07066406 21.48203125 17.03585937 22.2296875 17 23 C15.02 23.99 15.02 23.99 13 25 C13.165 24.319375 13.33 23.63875 13.5 22.9375 C14.26923866 18.41822288 14.45679198 14.37037595 13 10 C10.71108972 8.62665383 8.54247553 7.84749184 6 7 C6 6.01 6 5.02 6 4 C4.35 3.67 2.7 3.34 1 3 C0.67 2.01 0.34 1.02 0 0 Z " fill="#9D9D9D" transform="translate(318,230)"/>
<path d="M0 0 C0.99 0 1.98 0 3 0 C2.375 1.9375 2.375 1.9375 1 4 C-2.125 4.75 -2.125 4.75 -5 5 C-5 5.66 -5 6.32 -5 7 C-5.84304687 7.13277344 -6.68609375 7.26554687 -7.5546875 7.40234375 C-8.65039062 7.57894531 -9.74609375 7.75554687 -10.875 7.9375 C-11.96554688 8.11152344 -13.05609375 8.28554688 -14.1796875 8.46484375 C-16.93821546 8.85551159 -16.93821546 8.85551159 -19 10 C-20.99960012 10.039992 -23.00047242 10.04346799 -25 10 C-24.34 9.01 -23.68 8.02 -23 7 C-20.1796875 6.48828125 -20.1796875 6.48828125 -16.875 6.3125 C-15.23144531 6.21388672 -15.23144531 6.21388672 -13.5546875 6.11328125 C-12.29011719 6.05720703 -12.29011719 6.05720703 -11 6 C-11 5.34 -11 4.68 -11 4 C-10.37351563 3.87882812 -9.74703125 3.75765625 -9.1015625 3.6328125 C-8.28429687 3.46523438 -7.46703125 3.29765625 -6.625 3.125 C-5.81289062 2.96257812 -5.00078125 2.80015625 -4.1640625 2.6328125 C-1.81326077 2.13341068 -1.81326077 2.13341068 0 0 Z " fill="#CACACA" transform="translate(239,264)"/>
<path d="M0 0 C17.80418911 8.56019334 17.80418911 8.56019334 23 13 C23 13.66 23 14.32 23 15 C23.66 15.33 24.32 15.66 25 16 C21.33118845 15.29445932 18.29549466 13.72264494 15 12 C15 11.34 15 10.68 15 10 C13.35 9.67 11.7 9.34 10 9 C9.67 8.01 9.34 7.02 9 6 C7.6078125 5.8453125 7.6078125 5.8453125 6.1875 5.6875 C2.97535795 4.99468505 1.88069983 4.6120831 0 2 C0 1.34 0 0.68 0 0 Z " fill="#D3D3D3" transform="translate(296,218)"/>
<path d="M0 0 C0.33 0.66 0.66 1.32 1 2 C-0.25 4.5625 -0.25 4.5625 -2 7 C-2.99 7.33 -3.98 7.66 -5 8 C-5.33 9.32 -5.66 10.64 -6 12 C-1.545 11.505 -1.545 11.505 3 11 C2.67 11.66 2.34 12.32 2 13 C-0.28515625 13.4140625 -0.28515625 13.4140625 -3.0625 13.625 C-3.98160156 13.69976562 -4.90070313 13.77453125 -5.84765625 13.8515625 C-6.91306641 13.92503906 -6.91306641 13.92503906 -8 14 C-8.77734375 11.80078125 -8.77734375 11.80078125 -9 9 C-7.12890625 6.54296875 -7.12890625 6.54296875 -4.5625 4.1875 C-3.29599609 3.00220703 -3.29599609 3.00220703 -2.00390625 1.79296875 C-1.34261719 1.20128906 -0.68132812 0.60960937 0 0 Z " fill="#6A6A6A" transform="translate(270,282)"/>
<path d="M0 0 C-13.34482759 9 -13.34482759 9 -19 9 C-18.67 8.34 -18.34 7.68 -18 7 C-17.34 7 -16.68 7 -16 7 C-16 6.34 -16 5.68 -16 5 C-13 3 -13 3 -10 3 C-10 2.34 -10 1.68 -10 1 C-3.375 -1.125 -3.375 -1.125 0 0 Z " fill="#C2C2C2" transform="translate(302,277)"/>
<path d="M0 0 C1.65 0 3.3 0 5 0 C2.14303616 3.01568405 -0.24638571 5.24831333 -4 7 C-4.53625 7.53625 -5.0725 8.0725 -5.625 8.625 C-6.07875 9.07875 -6.5325 9.5325 -7 10 C-7.66 10 -8.32 10 -9 10 C-9.33 10.99 -9.66 11.98 -10 13 C-10.66 13 -11.32 13 -12 13 C-12 11.68 -12 10.36 -12 9 C-10.68 9 -9.36 9 -8 9 C-8 8.01 -8 7.02 -8 6 C-6.02 5.34 -4.04 4.68 -2 4 C-2 3.34 -2 2.68 -2 2 C-1.34 2 -0.68 2 0 2 C0 1.34 0 0.68 0 0 Z " fill="#C6C6C6" transform="translate(323,258)"/>
<path d="M0 0 C2.64 0 5.28 0 8 0 C7.01 0.33 6.02 0.66 5 1 C5 1.66 5 2.32 5 3 C-2.78069851 4.85939879 -9.98298054 6.41467342 -18 6 C-14.44859559 2.44859559 -9.36951506 2.94603822 -4.5625 2.9375 C-3.386875 2.958125 -2.21125 2.97875 -1 3 C-0.67 2.01 -0.34 1.02 0 0 Z " fill="#BBBBBB" transform="translate(229,222)"/>
<path d="M0 0 C2.76276177 0.52268466 5.3260876 1.10869587 8 2 C7.67 2.99 7.34 3.98 7 5 C5.68 4.34 4.36 3.68 3 3 C3.99 6.3 4.98 9.6 6 13 C0 7 0 7 -0.0625 3.4375 C-0.041875 2.303125 -0.02125 1.16875 0 0 Z " fill="#CDCDCD" transform="translate(265,202)"/>
<path d="M0 0 C1.2684375 0.433125 1.2684375 0.433125 2.5625 0.875 C4.91236171 1.64404565 7.29122591 2.32827777 9.6875 2.9375 C12.79918204 3.93558669 14.13171821 4.40516418 16 7 C16.33 7.99 16.66 8.98 17 10 C17.99 10.33 18.98 10.66 20 11 C19.67 11.66 19.34 12.32 19 13 C16.5 11.625 16.5 11.625 14 10 C14 9.34 14 8.68 14 8 C12.906875 7.731875 11.81375 7.46375 10.6875 7.1875 C7.19977919 6.06433567 6.26983897 5.59410168 4 3 C1.90010348 1.82425289 1.90010348 1.82425289 0 1 C0 0.67 0 0.34 0 0 Z " fill="#A2A2A2" transform="translate(274,218)"/>
<path d="M0 0 C0.66 0.33 1.32 0.66 2 1 C1.01 2.485 1.01 2.485 0 4 C-0.99 4 -1.98 4 -3 4 C-3.33 5.32 -3.66 6.64 -4 8 C-4.66 8 -5.32 8 -6 8 C-6 8.66 -6 9.32 -6 10 C-7.98 10 -9.96 10 -12 10 C-8.29909479 6.0747975 -4.45040344 3.05419844 0 0 Z " fill="#B7B7B7" transform="translate(283,272)"/>
<path d="M0 0 C1.98 0.99 1.98 0.99 4 2 C4 5.63 4 9.26 4 13 C2.02 13.99 2.02 13.99 0 15 C0.2475 13.9790625 0.2475 13.9790625 0.5 12.9375 C1.26923866 8.41822288 1.45679198 4.37037595 0 0 Z " fill="#BFBFBF" transform="translate(331,240)"/>
<path d="M0 0 C-6.26814075 3.98881684 -11.44885303 6.46231512 -19 6 C-18.67 4.68 -18.34 3.36 -18 2 C-18 2.99 -18 3.98 -18 5 C-16.35 5 -14.7 5 -13 5 C-13 4.34 -13 3.68 -13 3 C-9.535 2.505 -9.535 2.505 -6 2 C-6 1.34 -6 0.68 -6 0 C-3 -1 -3 -1 0 0 Z " fill="#BFBFBF" transform="translate(283,288)"/>
<path d="M0 0 C0 0.66 0 1.32 0 2 C-4.06345609 6.06345609 -8.61774638 7.45216236 -14 9 C-11.85295713 5.76908018 -9.85045691 4.07174306 -6.4375 2.25 C-5.65246094 1.82203125 -4.86742187 1.3940625 -4.05859375 0.953125 C-2 0 -2 0 0 0 Z " fill="#8D8D8D" transform="translate(300,263)"/>
<path d="M0 0 C0.98484375 0.00902344 1.9696875 0.01804687 2.984375 0.02734375 C4.10585937 0.04474609 4.10585937 0.04474609 5.25 0.0625 C5.25 0.3925 5.25 0.7225 5.25 1.0625 C3.68883181 1.40201619 2.12598662 1.73382544 0.5625 2.0625 C-0.74267578 2.3409375 -0.74267578 2.3409375 -2.07421875 2.625 C-4.68712964 3.05222047 -7.10813038 3.13866201 -9.75 3.0625 C-9.75 2.4025 -9.75 1.7425 -9.75 1.0625 C-6.43929162 0.06140485 -3.44915231 -0.04106134 0 0 Z " fill="#C6C6C6" transform="translate(206.75,273.9375)"/>
<path d="M0 0 C4.35453922 0.25614937 6.49609768 0.57277847 9.875 3.4375 C12 6 12 6 13 8 C10.03216871 6.54331217 7.13584687 4.98767914 4.25 3.375 C3.45078125 2.92898437 2.6515625 2.48296875 1.828125 2.0234375 C1.22484375 1.68570313 0.6215625 1.34796875 0 1 C0 0.67 0 0.34 0 0 Z " fill="#989898" transform="translate(294,231)"/>
<path d="M0 0 C-0.99 0.33 -1.98 0.66 -3 1 C-3 1.66 -3 2.32 -3 3 C-3.99 3 -4.98 3 -6 3 C-6 5.31 -6 7.62 -6 10 C-6.66 9.34 -7.32 8.68 -8 8 C-7.75 4.4375 -7.75 4.4375 -7 1 C-4.53721199 -0.231394 -2.7204945 -0.07159196 0 0 Z " fill="#D4D4D4" transform="translate(171,218)"/>
<path d="M0 0 C2.3828125 -0.29296875 2.3828125 -0.29296875 5.125 -0.1875 C6.03507813 -0.16042969 6.94515625 -0.13335937 7.8828125 -0.10546875 C8.58148438 -0.07066406 9.28015625 -0.03585937 10 0 C5.59360646 2.20319677 3.02549129 3.10924981 -2 3 C-1.34 2.01 -0.68 1.02 0 0 Z " fill="#C4C4C4" transform="translate(216,271)"/>
<path d="M0 0 C0 0.99 0 1.98 0 3 C-3.76737643 5.96823597 -7.29761275 6.53898164 -12 7 C-10.53092999 4.06185997 -8.40552194 3.6713774 -5.4375 2.375 C-4.42558594 1.92898438 -3.41367187 1.48296875 -2.37109375 1.0234375 C-1.58863281 0.68570312 -0.80617188 0.34796875 0 0 Z " fill="#E0E0E0" transform="translate(296,267)"/>
<path d="M0 0 C3.63 1.65 7.26 3.3 11 5 C11 5.33 11 5.66 11 6 C3.54062751 5.38857603 3.54062751 5.38857603 1 3.5625 C0 2 0 2 0 0 Z " fill="#C4C4C4" transform="translate(296,218)"/>
<path d="M0 0 C2.31 0.33 4.62 0.66 7 1 C7 1.66 7 2.32 7 3 C7.99 3.33 8.98 3.66 10 4 C9.67 4.66 9.34 5.32 9 6 C7.68397477 5.38245741 6.37226444 4.75571258 5.0625 4.125 C4.33160156 3.77695313 3.60070312 3.42890625 2.84765625 3.0703125 C1 2 1 2 0 0 Z " fill="#D4D4D4" transform="translate(271,215)"/>
<path d="M0 0 C0.99 0.33 1.98 0.66 3 1 C3 4.3 3 7.6 3 11 C2.01 11 1.02 11 0 11 C0.33 10.67 0.66 10.34 1 10 C1.15672777 6.47362528 1.04028969 3.38094149 0 0 Z " fill="#DCDCDC" transform="translate(314,242)"/>
<path d="M0 0 C2.64 0 5.28 0 8 0 C7.01 0.33 6.02 0.66 5 1 C5 1.66 5 2.32 5 3 C3.02 3 1.04 3 -1 3 C-0.67 2.01 -0.34 1.02 0 0 Z " fill="#CECECE" transform="translate(229,222)"/>
<path d="M0 0 C0.33 0.66 0.66 1.32 1 2 C-0.25 4.625 -0.25 4.625 -2 7 C-2.99 7 -3.98 7 -5 7 C-3.70700306 4.11562221 -2.34058637 2.12780579 0 0 Z " fill="#ADADAD" transform="translate(270,282)"/>
<path d="M0 0 C0.66 0.33 1.32 0.66 2 1 C1.01 2.485 1.01 2.485 0 4 C-0.99 4 -1.98 4 -3 4 C-3 4.66 -3 5.32 -3 6 C-4.32 5.67 -5.64 5.34 -7 5 C-4.69 3.35 -2.38 1.7 0 0 Z " fill="#8A8A8A" transform="translate(283,272)"/>
<path d="M0 0 C0 0.66 0 1.32 0 2 C-0.66 2 -1.32 2 -2 2 C-2 2.66 -2 3.32 -2 4 C-3.98 4.33 -5.96 4.66 -8 5 C-3.16129032 0 -3.16129032 0 0 0 Z " fill="#959595" transform="translate(308,258)"/>
<path d="M0 0 C1.65 0 3.3 0 5 0 C2.63707344 2.52588702 1.33537489 3.88820837 -2 5 C-1.34 3.35 -0.68 1.7 0 0 Z " fill="#CDCDCD" transform="translate(304,271)"/>
</svg>
